<?xml version="1.0" ?><svg fill="none" height="24" viewBox="0 0 24 24" width="24" xmlns="http://www.w3.org/2000/svg"><path d="M13.3986 7.64605C13.495 7.37724 13.88 7.37724 13.9764 7.64605L14.2401 8.38111C14.271 8.46715 14.3395 8.53484 14.4266 8.56533L15.1709 8.82579C15.443 8.92103 15.443 9.30119 15.1709 9.39644L14.4266 9.65689C14.3395 9.68738 14.271 9.75507 14.2401 9.84112L13.9764 10.5762C13.88 10.845 13.495 10.845 13.3986 10.5762L13.1349 9.84112C13.104 9.75507 13.0355 9.68738 12.9484 9.65689L12.2041 9.39644C11.932 9.30119 11.932 8.92103 12.2041 8.82579L12.9484 8.56533C13.0355 8.53484 13.104 8.46715 13.1349 8.38111L13.3986 7.64605Z" fill="black"/><path d="M16.3074 10.9122C16.3717 10.733 16.6283 10.733 16.6926 10.9122L16.8684 11.4022C16.889 11.4596 16.9347 11.5047 16.9928 11.525L17.4889 11.6987C17.6704 11.7622 17.6704 12.0156 17.4889 12.0791L16.9928 12.2527C16.9347 12.2731 16.889 12.3182 16.8684 12.3756L16.6926 12.8656C16.6283 13.0448 16.3717 13.0448 16.3074 12.8656L16.1316 12.3756C16.111 12.3182 16.0653 12.2731 16.0072 12.2527L15.5111 12.0791C15.3296 12.0156 15.3296 11.7622 15.5111 11.6987L16.0072 11.525C16.0653 11.5047 16.111 11.4596 16.1316 11.4022L16.3074 10.9122Z" fill="black"/><path d="M17.7693 3.29184C17.9089 2.90272 18.4661 2.90272 18.6057 3.29184L19.0842 4.62551C19.1288 4.75006 19.2281 4.84805 19.3542 4.89219L20.7045 5.36475C21.0985 5.50263 21.0985 6.05293 20.7045 6.19081L19.3542 6.66337C19.2281 6.7075 19.1288 6.80549 19.0842 6.93005L18.6057 8.26372C18.4661 8.65284 17.9089 8.65284 17.7693 8.26372L17.2908 6.93005C17.2462 6.80549 17.1469 6.7075 17.0208 6.66337L15.6705 6.19081C15.2765 6.05293 15.2765 5.50263 15.6705 5.36475L17.0208 4.89219C17.1469 4.84805 17.2462 4.75006 17.2908 4.62551L17.7693 3.29184Z" fill="black"/><path clip-rule="evenodd" d="M10.2717 5.62789C10.4243 5.89494 10.3984 6.22811 10.2063 6.46836C9.4004 7.47646 8.92323 8.73845 8.92323 10.1084C8.92323 13.3758 11.6552 16.0609 15.0709 16.0609C16.009 16.0609 16.8957 15.8579 17.6886 15.496C17.9672 15.3689 18.2952 15.4239 18.5171 15.635C18.7389 15.8462 18.8101 16.1711 18.6968 16.4556C17.4607 19.562 14.3662 21.75 10.7598 21.75C6.08042 21.75 2.25 18.0585 2.25 13.4597C2.25 9.27676 5.421 5.84281 9.51439 5.25758C9.81888 5.21404 10.1191 5.36084 10.2717 5.62789ZM8.02561 7.20477C5.50445 8.23972 3.75 10.6606 3.75 13.4597C3.75 17.1897 6.86798 20.25 10.7598 20.25C13.101 20.25 15.1668 19.1398 16.4381 17.4421C15.9942 17.5202 15.5372 17.5609 15.0709 17.5609C10.8676 17.5609 7.42323 14.2445 7.42323 10.1084C7.42323 9.07816 7.63804 8.09677 8.02561 7.20477Z" fill="black" fill-rule="evenodd"/></svg>